# xmcd
#
# Track frame offsets:
# 150
# 19295
# 39471
# 57883
# 77676
# 106839
# 130902
# 151459
# 172597
# 193182
# 214187
# 239316
# 260766
# 282368
# 304121
# 322918
#
# Disc length: 4568 seconds
#
# Revision: 0
# Processed by: cddbd v1.4PL0 Copyright (c) Steve Scherf et al.
# Submitted via: Audion 3.0.2 (http://www.panic.com/audion/)
#
DISCID=d811d610
DTITLE=Santana - Shaman
DYEAR=1900
DGENRE=
TTITLE0=ADOUMA
TTITLE1=NOTHING AT ALL
TTITLE2=THE GAME OF LOVE
TTITLE3=YOU ARE MY KIND
TTITLE4=FOO FOO
TTITLE5=VICTORY IS WON
TTITLE6=AMERICA
TTITLE7=SIDEWAYS
TTITLE8=WHY DON'T YOU and I 
TTITLE9=FEELS LIKE FIRE
TTITLE10=LET ME LOVE YOU TONIGHT
TTITLE11=AYE, AYE, AYE
TTITLE12=HOY ES ADIOS
TTITLE13=ONE OF THESE DAYS
TTITLE14=NOVUS
TTITLE15=MARIA MARIA
EXTD=
EXTT0=
EXTT1=
EXTT2=
EXTT3=
EXTT4=
EXTT5=
EXTT6=
EXTT7=
EXTT8=
EXTT9=
EXTT10=
EXTT11=
EXTT12=
EXTT13=
EXTT14=
EXTT15=
PLAYORDER=
